<?xml version="1.0" encoding="utf-8"?>
<!-- Generator: Adobe Illustrator 21.0.0, SVG Export Plug-In . SVG Version: 6.00 Build 0)  -->
<svg version="1.1" xmlns="http://www.w3.org/2000/svg" xmlns:xlink="http://www.w3.org/1999/xlink" x="0px" y="0px"
	 viewBox="0 0 1200 1200" style="enable-background:new 0 0 1200 1200;" xml:space="preserve">
<style type="text/css">
	.st0{enable-background:new    ;}
	.st1{fill-rule:evenodd;clip-rule:evenodd;fill:#0CDF85;}
	.st2{fill-rule:evenodd;clip-rule:evenodd;fill:#07F791;}
	.st3{fill-rule:evenodd;clip-rule:evenodd;fill:#08E386;}
	.st4{fill-rule:evenodd;clip-rule:evenodd;fill:#FFFFFF;}
</style>
<g id="Rectangle_7_1_" class="st0">
	<g id="Rectangle_7">
		<g>
			<path class="st1" d="M964.4,1032.2H6.7c-2.5,0-4.1,2-3.6,4.5l3.5,17.9c0.5,2.4,2.8,4.4,5.3,4.4h947.4c2.4,0,4.8-2,5.3-4.4
				l3.5-17.9C968.5,1034.2,966.9,1032.2,964.4,1032.2z"/>
		</g>
	</g>
</g>
<g id="Rectangle_6_1_" class="st0">
	<g id="Rectangle_6">
		<g>
			<path class="st2" d="M968.3,1034.5L866.6,974c-1.9-1.1-7.5-2.1-12.3-2.1H119.5c-4.9,0-10.4,0.9-12.3,2.1L5.6,1034.5
				c-3.1,1.9-0.6,3.4,5.8,3.4h951.2C968.9,1037.8,971.4,1036.3,968.3,1034.5z"/>
		</g>
	</g>
</g>
<g id="Rectangle_1_1_" class="st0">
	<g id="Rectangle_1">
		<g>
			<path class="st2" d="M1141,124H44c-2.8,0-5,2.2-5,5v567.6c0,2.8,2.2,5,5,5h1097c2.8,0,5-2.2,5-5V129
				C1146,126.2,1143.8,124,1141,124z"/>
		</g>
	</g>
</g>
<g id="Shape_2_1_" class="st0">
	<g id="Shape_2">
		<g>
			<path class="st3" d="M761.9,856.2c0-14-5.4-20.3-5.4-20.3s-75.4,68.7-168.5,68.7c-93.1,0-157.6-65.6-157.6-65.6s-3.6,11-3.6,17.2
				c0,5.3,1.7,13.7,1.8,14.1c0.6,1.6-1.8,9.4-1.8,9.4s21.8,19.7,58,32.8c30,10.9,70.1,15.6,112.3,15.6c39.3,0,79-5.6,106.9-15.6
				c38.2-13.6,58-32.8,58-32.8s-1.8-7.3-1.8-7.8C760.1,870.9,761.9,861.3,761.9,856.2z"/>
		</g>
	</g>
</g>
<g id="Ellipse_1_1_" class="st0">
	<g id="Ellipse_1">
		<g>
			<ellipse class="st2" cx="594.3" cy="849.1" rx="167.6" ry="60.1"/>
		</g>
	</g>
</g>
<g id="Shape_4_1_" class="st0">
	<g id="Shape_4">
		<g>
			<path class="st1" d="M1115.2,1021.9c-4.3-16.1-27.7-28.4-69.9-28c-9.6,0.1-5.9-3.2-16.5-2.4c-13.2,1.1-34.2,8.2-25.9,10.1
				c20.6,4.7,12.3,3.6,22.9,5.1c8.9,1.3,28.2,9.5,35.1,16c9.6,9.1,6.9,15.4,8,19.3c0.7,2.9,24-9,38.2-14.8
				C1112.2,1025.3,1115.5,1023.3,1115.2,1021.9z"/>
		</g>
	</g>
</g>
<g id="Shape_3_1_" class="st0">
	<g id="Shape_3">
		<g>
			<path class="st2" d="M1100.1,966.9c-32.5-2.3-88.6,2.8-95.7,19.9c-2.3,5.6-3.7,6.4-5,15.4c0.2-1.5,14.2-6.4,17.3-6.7
				c6-0.7,9.1,2.1,21.8,2.9c6.5,0.4,30.4,1.1,34.3,8.4c4.7,8.9,2.9,19,2.2,21.2c-1.1,3.4-4.1,6.7-7.4,13.1
				c-3.2,6.2,53.3,26.6,92.6,13.7c10.9-3.6,23.8-10.5,26.9-13.2l9.9-7.5C1172.4,991.4,1141.9,969.9,1100.1,966.9z"/>
		</g>
	</g>
</g>
<g id="Rectangle_2_1_" class="st0">
	<g id="Rectangle_2">
		<g>
			<rect x="49.9" y="133.4" class="st4" width="1085.2" height="558.9"/>
		</g>
	</g>
</g>
<g id="Rectangle_9_1_" class="st0">
	<g id="Rectangle_9">
		<g>
			<rect x="510.1" y="701.6" class="st3" width="168.5" height="148.3"/>
		</g>
	</g>
</g>
</svg>
