<?xml version="1.0" encoding="utf-8"?>
<!-- Generator: Adobe Illustrator 21.0.0, SVG Export Plug-In . SVG Version: 6.00 Build 0)  -->
<svg version="1.1" id="SHAHAR_x0D_YOGEV" xmlns="http://www.w3.org/2000/svg" xmlns:xlink="http://www.w3.org/1999/xlink" x="0px"
	 y="0px" viewBox="0 0 150 150" style="enable-background:new 0 0 240 240;" xml:space="preserve">
<style type="text/css">
	.st0{fill:#07F791;}
	.st1{fill:#FFFFFF;}
</style>
<g>
	<path class="st0" d="M55.2,104c0,1.6-0.5,3-1.5,4c-1,1-2.3,1.6-4,1.6H30c-1.6,0-3-0.5-4-1.6c-1.1-1-1.6-2.4-1.6-4V84.2h7v19.3h16.9
		V84.8L26.7,58.7c-1.5-1.8-2.3-3.8-2.3-6V36.9c0-1.6,0.5-3,1.6-4c1-1,2.4-1.6,4-1.6h19.7c1.6,0,3,0.5,4,1.6c1,1,1.5,2.4,1.5,4v18.2
		h-7V37.5H31.4V54l21.7,26.1c1.4,1.7,2.1,3.7,2.1,5.9V104z"/>
	<path class="st1" d="M90.6,109.6h-5.2V81.4H71.2v28.2H66V50.9h5.2v25.8h14.1V50.9h5.2V109.6z"/>
	<path class="st1" d="M123.6,109.6h-5.2l-2.1-13.1h-11.7l-2.1,13.1h-5v-0.1l10.5-58.7h5.1L123.6,109.6z M115.7,91.9l-5.1-31.8
		l-5.2,31.8H115.7z"/>
	<path class="st1" d="M155.2,109.6H150V81.4h-14.1v28.2h-5.2V50.9h5.2v25.8H150V50.9h5.2V109.6z"/>
	<path class="st1" d="M188.2,109.6h-5.2L181,96.5h-11.7l-2.1,13.1h-5v-0.1l10.5-58.7h5.1L188.2,109.6z M180.3,91.9l-5.1-31.8
		L170,91.9H180.3z"/>
	<path class="st1" d="M220.3,109.6h-5.5l-10.9-31.4l0.7-1h9.3V55.5h-13.4v54.1h-5.2V50.9H215c1.2,0,2.2,0.4,3,1.2
		c0.8,0.8,1.2,1.8,1.2,3v22.3c0,2.8-1.9,4.2-5.7,4.2c-0.4,0-0.9,0-1.7-0.1c-0.7,0-1.3-0.1-1.6-0.1
		C213.6,90.8,216.9,100.2,220.3,109.6z"/>
	<path class="st0" d="M56.2,127.8l-9.5,31.7c-1.2,3.2-2.8,8.5-4.8,15.9v30.3h-7v-30.3c-0.5-2.5-1.2-5.2-2.1-8
		c-1.6-4.8-2.5-7.4-2.6-7.9l-9.5-31.7c0,0,0-0.2,0-0.5h7.1l10.8,39.2l10.7-39.2h7C56.2,127.5,56.2,127.7,56.2,127.8z"/>
	<path class="st1" d="M87.9,201.4c0,1.2-0.4,2.2-1.2,3c-0.8,0.8-1.8,1.2-3,1.2H67.3c-1.2,0-2.2-0.4-3-1.2c-0.8-0.8-1.2-1.8-1.2-3
		V151c0-1.2,0.4-2.2,1.2-3c0.8-0.8,1.8-1.2,3-1.2h16.4c1.2,0,2.2,0.4,3,1.2c0.8,0.8,1.2,1.8,1.2,3V201.4z M82.7,201v-49.5H68.4V201
		H82.7z"/>
	<path class="st1" d="M121,201.4c0,1.2-0.4,2.2-1.2,3c-0.8,0.8-1.8,1.2-3,1.2h-15.4c-1.2,0-2.2-0.4-3-1.2c-0.8-0.8-1.2-1.8-1.2-3
		V151c0-1.2,0.4-2.2,1.2-3c0.8-0.8,1.8-1.2,3-1.2h15.4c1.2,0,2.2,0.4,3,1.2c0.8,0.8,1.2,1.8,1.2,3v13.7h-5.3v-13.2h-13.3V201h13.3
		v-20.3h-6.3v-4.5H121V201.4z"/>
	<path class="st1" d="M149.6,205.6h-19.3v-58.7h19.1v4.6h-13.8v21.9h12.6v4.7h-12.6V201h14.1V205.6z"/>
	<path class="st1" d="M180.7,146.9l-10.2,58.8h-4.9l-10.2-58.8h5.2l7.3,46.7l0.2,3.8c0-0.9,0.1-2.1,0.3-3.8l7.3-46.7H180.7z"/>
</g>
</svg>
