<?xml version="1.0" encoding="utf-8"?>
<!-- Generator: Adobe Illustrator 21.0.0, SVG Export Plug-In . SVG Version: 6.00 Build 0)  -->
<svg version="1.1" xmlns="http://www.w3.org/2000/svg" xmlns:xlink="http://www.w3.org/1999/xlink" x="0px" y="0px"
	 viewBox="0 0 1200 1200" style="enable-background:new 0 0 1200 1200;" xml:space="preserve">
<style type="text/css">
	.st0{enable-background:new    ;}
	.st1{fill-rule:evenodd;clip-rule:evenodd;fill:#0CDF85;}
	.st2{fill-rule:evenodd;clip-rule:evenodd;fill:#07F791;}
	.st3{fill-rule:evenodd;clip-rule:evenodd;fill:#FFFFFF;}
</style>
<g id="Rectangle_7_1_" class="st0">
	<g id="Rectangle_7">
		<g>
			<path class="st1" d="M1168.8,973H23.4c-2.9,0-4.9,2.4-4.3,5.4l4.1,21.3c0.6,2.9,3.4,5.3,6.3,5.3h1133.1c2.9,0,5.7-2.4,6.3-5.3
				l4.1-21.3C1173.6,975.4,1171.7,973,1168.8,973z"/>
		</g>
	</g>
</g>
<g id="Rectangle_6_1_" class="st0">
	<g id="Rectangle_6">
		<g>
			<path class="st2" d="M1173.4,968.6l-121.6-205.5c-2.3-3.9-8.9-7-14.8-7H157.8c-5.9,0-12.5,3.1-14.8,7L21.4,968.6
				c-3.8,6.3-0.7,11.5,6.9,11.5h1138.2C1174.1,980.1,1177.2,974.9,1173.4,968.6z"/>
		</g>
	</g>
</g>
<g id="Rectangle_1_1_" class="st0">
	<g id="Rectangle_1">
		<g>
			<path class="st2" d="M1043.8,169H149.2c-2.8,0-5,2.2-5,5v573.3c0,2.8,2.2,5,5,5h894.6c2.8,0,5-2.2,5-5V174
				C1048.8,171.2,1046.6,169,1043.8,169z"/>
		</g>
	</g>
</g>
<g id="Rectangle_2_1_" class="st0">
	<g id="Rectangle_2">
		<g>
			<rect x="168.2" y="196.5" class="st3" width="858.3" height="531.1"/>
		</g>
	</g>
</g>
<g id="Ellipse_1_1_" class="st0">
	<g id="Ellipse_1">
		<g>
			<ellipse class="st3" cx="605.4" cy="182.3" rx="8" ry="8"/>
		</g>
	</g>
</g>
<g id="Rectangle_8_1_" class="st0">
	<g id="Rectangle_8">
		<g>
			<polygon class="st3" points="668.5,867.9 538.8,867.9 517.4,963.9 689.8,963.9 			"/>
		</g>
	</g>
</g>
</svg>
