<svg width="42" height="42" xmlns="http://www.w3.org/2000/svg">

 <g>
  <title>background</title>
  <rect fill="none" id="canvas_background" height="44" width="44" y="-1" x="-1"/>
 </g>
 <g>
  <title>Layer 1</title>
  <path stroke="null" fill="#ffffff" canvas-opacity="0" id="svg_1" d="m33.758278,7.20369l-24.9571,0c-2.58423,0 -4.679456,2.095227 -4.679456,4.679456l0,18.717825c0,2.58423 2.095227,4.679456 4.679456,4.679456l24.9571,0c2.58423,0 4.679456,-2.095227 4.679456,-4.679456l0,-18.717825c0,-2.58423 -2.095227,-4.679456 -4.679456,-4.679456zm0,3.119638c0.178989,0 0.34823,0.036266 0.508111,0.091639l-12.986661,10.389173l-12.986661,-10.389173c0.160271,-0.055374 0.329122,-0.091639 0.508111,-0.091639l24.9571,0zm0,21.837463l-24.9571,0c-0.8618,0 -1.559819,-0.698019 -1.559819,-1.559819l0,-17.032051l13.063872,10.450786c0.284667,0.228123 0.629777,0.34199 0.974497,0.34199s0.68983,-0.113867 0.974497,-0.34199l13.063872,-10.450786l0,17.032051c0,0.8618 -0.698019,1.559819 -1.559819,1.559819z"/>
 </g>
</svg>