<?xml version="1.0" encoding="utf-8"?>
<!-- Generator: Adobe Illustrator 21.0.0, SVG Export Plug-In . SVG Version: 6.00 Build 0)  -->
<svg version="1.1" id="SHAHAR_YOGEV" xmlns="http://www.w3.org/2000/svg" xmlns:xlink="http://www.w3.org/1999/xlink" x="0px"
	 y="0px" viewBox="0 0 278.9 75.6" style="enable-background:new 0 0 278.9 75.6;" xml:space="preserve">
<style type="text/css">
	.st0{fill:#07F791;}
</style>
<g>
	<path class="st0" d="M29.3,61.1c0,1.1-0.4,2.1-1.1,2.8c-0.7,0.7-1.6,1.1-2.8,1.1H11.7c-1.1,0-2.1-0.4-2.8-1.1
		c-0.7-0.7-1.1-1.6-1.1-2.8V47.3h4.8v13.4h11.8v-13l-15-18.1c-1-1.3-1.6-2.6-1.6-4.1v-11c0-1.1,0.4-2.1,1.1-2.8
		c0.7-0.7,1.7-1.1,2.8-1.1h13.7c1.1,0,2.1,0.4,2.8,1.1c0.7,0.7,1.1,1.6,1.1,2.8V27h-4.8V14.8H12.7v11.5l15.1,18.1
		c1,1.2,1.5,2.6,1.5,4.1V61.1z"/>
	<path d="M53.8,64.9h-3.6V45.3h-9.8v19.6h-3.6V24.1h3.6v17.9h9.8V24.1h3.6V64.9z"/>
	<path d="M76.8,64.9h-3.6l-1.4-9.1h-8.1l-1.4,9.1h-3.5v-0.1L66,24h3.6L76.8,64.9z M71.3,52.6l-3.6-22.1l-3.6,22.1H71.3z"/>
	<path d="M98.8,64.9h-3.6V45.3h-9.8v19.6h-3.6V24.1h3.6v17.9h9.8V24.1h3.6V64.9z"/>
	<path d="M121.8,64.9h-3.6l-1.4-9.1h-8.1l-1.4,9.1h-3.5v-0.1L111,24h3.6L121.8,64.9z M116.3,52.6l-3.6-22.1l-3.6,22.1H116.3z"/>
	<path d="M144.1,64.9h-3.8l-7.6-21.8l0.5-0.7h6.5v-15h-9.3v37.6h-3.6V24.1h13.7c0.9,0,1.5,0.3,2.1,0.8c0.5,0.5,0.8,1.2,0.8,2.1v15.5
		c0,2-1.3,2.9-4,2.9c-0.3,0-0.6,0-1.1,0c-0.5,0-0.9,0-1.1,0C139.4,51.9,141.8,58.4,144.1,64.9z"/>
	<path class="st0" d="M183,10.8l-6.6,22c-0.8,2.2-1.9,5.9-3.3,11v21.1h-4.8V43.9c-0.3-1.8-0.8-3.6-1.5-5.6c-1.1-3.3-1.7-5.2-1.8-5.5
		l-6.6-22c0,0,0-0.1,0-0.3h4.9l7.5,27.2l7.4-27.2h4.9C183,10.7,183,10.8,183,10.8z"/>
	<path d="M205,62c0,0.9-0.3,1.5-0.8,2.1c-0.5,0.5-1.2,0.8-2.1,0.8h-11.4c-0.9,0-1.5-0.3-2.1-0.8c-0.5-0.5-0.8-1.2-0.8-2.1V27
		c0-0.9,0.3-1.5,0.8-2.1c0.5-0.5,1.2-0.8,2.1-0.8h11.4c0.9,0,1.6,0.3,2.1,0.8c0.5,0.5,0.8,1.2,0.8,2.1V62z M201.4,61.7V27.3h-10
		v34.4H201.4z"/>
	<path d="M228.1,62c0,0.9-0.3,1.5-0.8,2.1c-0.5,0.5-1.2,0.8-2.1,0.8h-10.7c-0.9,0-1.5-0.3-2.1-0.8c-0.5-0.5-0.8-1.2-0.8-2.1V27
		c0-0.9,0.3-1.5,0.8-2.1c0.5-0.5,1.2-0.8,2.1-0.8h10.7c0.9,0,1.5,0.3,2.1,0.8c0.5,0.5,0.8,1.2,0.8,2.1v9.5h-3.7v-9.2h-9.2v34.4h9.2
		V47.6h-4.4v-3.1h8V62z"/>
	<path d="M248,64.9h-13.4V24.1h13.3v3.2h-9.6v15.2h8.8v3.3h-8.8v15.9h9.8V64.9z"/>
	<path d="M269.6,24.1L262.5,65h-3.4L252,24.1h3.6l5.1,32.5l0.2,2.7c0-0.6,0.1-1.5,0.2-2.7l5.1-32.5H269.6z"/>
</g>
</svg>
