<?xml version="1.0" encoding="utf-8"?>
<!-- Generator: Adobe Illustrator 21.0.0, SVG Export Plug-In . SVG Version: 6.00 Build 0)  -->
<svg version="1.1" xmlns="http://www.w3.org/2000/svg" xmlns:xlink="http://www.w3.org/1999/xlink" x="0px" y="0px"
	 viewBox="0 0 240 240" style="enable-background:new 0 0 240 240;" xml:space="preserve">
<style type="text/css">
	.st0{enable-background:new    ;}
	.st1{fill-rule:evenodd;clip-rule:evenodd;fill:#07F791;}
	.st2{fill-rule:evenodd;clip-rule:evenodd;fill:#FFFFFF;}
</style>
<g id="Rectangle_1_1_" class="st0">
	<g id="Rectangle_1">
		<path class="st1" d="M172.6,27.4H67.2c-0.7,0-1.2,0.5-1.2,1.2v182.9c0,0.7,0.5,1.2,1.2,1.2h105.4c0.7,0,1.2-0.5,1.2-1.2V28.6
			C173.8,27.9,173.2,27.4,172.6,27.4z"/>
	</g>
</g>
<g id="Rectangle_2_1_" class="st0">
	<g id="Rectangle_2">
		<rect x="68.6" y="34.3" class="st2" width="102.2" height="168.7"/>
	</g>
</g>
<g id="Rectangle_4_1_" class="st0">
	<g id="Rectangle_4">
		<path class="st2" d="M131.6,205.2h-23.8c-1.4,0-2.5,1.1-2.5,2.5c0,1.4,1.1,2.5,2.5,2.5h23.8c1.4,0,2.5-1.1,2.5-2.5
			C134.2,206.3,133,205.2,131.6,205.2z"/>
	</g>
</g>
<g id="Ellipse_1_1_" class="st0">
	<g id="Ellipse_1">
		<circle class="st2" cx="119.8" cy="30.7" r="2.2"/>
	</g>
</g>
</svg>
